<?xml version="1.0" encoding="utf-8"?>
<!-- Generator: Adobe Illustrator 25.0.1, SVG Export Plug-In . SVG Version: 6.00 Build 0)  -->
<svg version="1.1" id="Layer_1" xmlns="http://www.w3.org/2000/svg" xmlns:xlink="http://www.w3.org/1999/xlink" x="0px" y="0px"
	 viewBox="0 0 500 500" style="enable-background:new 0 0 500 500;" xml:space="preserve">
<style type="text/css">
	.st0{fill:#FF6A1A;}
	.st1{fill:#CBCBCA;}
	.st2{fill:#ECECEC;}
	.st3{fill:#FFFFFF;}
	.st4{fill:none;stroke:#FF6A1A;stroke-width:1.633;stroke-miterlimit:10;}
	.st5{fill:#606161;}
	.st6{fill:none;stroke:#FF6A1A;stroke-miterlimit:10;}
</style>
<g>
	<g>
		<g>
			<path class="st0" d="M102.08,290.9c5.67,0,10.53,2.01,14.58,6.04c4.04,4.03,6.06,8.88,6.06,14.55s-2.02,10.53-6.06,14.55
				c-4.04,4.03-8.9,6.04-14.58,6.04H82.49v26.96H70.6v-47.27h11.89v8.46h19.59c2.44,0,4.52-0.86,6.23-2.57
				c1.71-1.71,2.57-3.77,2.57-6.18c0-2.41-0.86-4.47-2.57-6.18c-1.71-1.71-3.79-2.57-6.23-2.57H70.6v-0.05h-5.85l5.85-11.79H102.08z
				"/>
			<path class="st0" d="M143.82,290.85h46.46v11.89h-46.46v-0.05h-5.85L143.82,290.85z M155.71,311.78v35.43h34.57v11.84h-46.46
				v-47.27H155.71z M161.56,332.08h-5.85l5.85-11.84h22.3v11.84H161.56z"/>
			<path class="st0" d="M253.19,290.9v11.84h-14.98v56.31h-11.84v-56.31h-14.98v-0.05h-5.85l5.85-11.79H253.19z"/>
			<path class="st0" d="M320.76,290.9h11.89l-26.53,56.97l-5.9,12.7l-5.95-12.75l-26.49-56.92h11.84l20.54,44.23L320.76,290.9z"/>
			<path class="st0" d="M352.56,290.9h11.89v68.15h-11.89v-56.35h-5.85L352.56,290.9z"/>
			<path class="st0" d="M423.41,290.9h11.84v68.15l-11.84-18.64l-23.97-37.71h-13.89h-5.85l5.85-11.79v-0.05h6.37l11.79,0.05
				l19.69,29.58V290.9z M397.45,359.05h-11.89v-47.27h11.89V359.05z"/>
		</g>
	</g>
	<g>
		<line class="st4" x1="198.43" y1="256.96" x2="198.43" y2="277.69"/>
		<g>
			<g>
				<path class="st5" d="M197.57,221.1c7.47-2.32,12.78-6.81,16.39-13.34c2.33-4.2,3.29-8.74,3.29-13.54c-0.02-24,0-48,0.01-72
					c0-4.21,3.48-7.71,7.68-7.71c35.37-0.01,70.75,0,106.12,0c1.83,0,1.81,0.06,1.65,1.87c-0.68,8.15-8.1,14.32-16.19,14.28
					c-27.21-0.12-54.43-0.03-81.64-0.08c-1.48,0-1.71,0.51-1.7,1.82c0.04,20.59-0.02,41.18,0.08,61.77
					c0.04,7.91-1.59,15.34-5.61,22.15c-6.74,11.42-16.5,18.76-29.62,21.31c-2.57,0.5-5.24,0.61-7.87,0.68
					c-4.81,0.13-8.21-3.23-8.23-8.02c-0.04-8.59-0.03-17.18-0.03-25.77c-0.01-21.6-0.14-43.2,0.03-64.8
					c0.18-23.29,10.26-41.26,30.14-53.37c13.93-8.48,29.12-10.64,45.02-7.02c14.88,3.38,26.87,11.34,36.14,23.45
					c0.26,0.34,0.49,0.71,0.72,1.07c0.04,0.07,0.01,0.18,0.01,0.42c-0.5,0.02-1,0.06-1.51,0.06c-6.1,0.01-12.19,0.04-18.29-0.02
					c-0.83-0.01-1.8-0.33-2.47-0.83c-9.74-7.16-20.56-10.56-32.66-9.32c-15.86,1.63-27.52,9.84-35.65,23.28
					c-4.25,7.03-5.85,14.76-5.82,22.96c0.09,25.25,0.03,50.49,0.02,75.74C197.57,217.71,197.57,219.28,197.57,221.1z"/>
				<path class="st5" d="M243.34,203.29c0-5.65,0-10.86,0-16.09c2.3-0.23,4.53-0.38,6.75-0.69c10.08-1.41,18.71-5.77,25.81-13.03
					c8.47-8.67,13-19.06,13.13-31.25c0.01-0.91,0.24-1.3,1.21-1.29c4.56,0.03,9.12,0.04,13.68-0.01c1.27-0.01,1.22,0.71,1.19,1.58
					c-0.61,20.12-8.99,36.29-24.92,48.5c-8.42,6.46-17.99,10.33-28.57,11.58C248.93,202.9,246.21,203.05,243.34,203.29z"/>
				<path class="st5" d="M260.94,151.15c5.38,0,10.75,0.03,16.13-0.03c1.29-0.01,1.66,0.37,1.55,1.66
					c-0.61,7.55-7.19,13.98-14.75,14.14c-6.48,0.14-12.96,0.05-19.44,0.1c-0.97,0.01-1.22-0.36-1.21-1.28
					c0.04-4.37,0.06-8.74-0.01-13.1c-0.02-1.28,0.49-1.51,1.6-1.51C250.19,151.18,255.57,151.16,260.94,151.15
					C260.94,151.16,260.94,151.15,260.94,151.15z"/>
			</g>
		</g>
		<path class="st0" d="M206,280.44c3.18-0.29,6.35-0.57,9.53-0.86c0.04,0.11,0.08,0.22,0.13,0.33c-0.92,0.46-1.84,0.92-3.14,1.56
			c8.2,0.28,16.03,0.55,23.86,0.81c0,0.13,0,0.26,0,0.39c-11.91,0.42-23.83,0.84-36.19,1.27c0.85-1.09,1.44-1.84,2.03-2.6
			c-0.07-0.09-0.15-0.17-0.22-0.26c-0.65,0.46-1.3,0.92-2.06,1.46c-0.1-0.29-0.2-0.54-0.31-0.85c-0.34,0.26-0.67,0.5-1.16,0.86
			c-0.11-0.75-0.18-1.3-0.26-1.86c-0.06,0-0.12,0-0.18-0.01c-0.08,0.55-0.16,1.09-0.26,1.74c-1.15-0.48-2.19-0.92-3.39-1.42
			c0.54,0.8,1.03,1.52,1.66,2.45c-9.73-0.33-19.27-0.66-28.81-0.98c0-0.02-0.01-0.05-0.01-0.07c6.77-0.34,13.54-0.67,20.31-1.01
			c0.04-0.11,0.08-0.22,0.12-0.33c-1.59-0.89-3.19-1.78-4.78-2.67c0.05-0.12,0.09-0.24,0.14-0.35c2.54,0.43,5.08,0.87,8.19,1.39
			c-5.35-5.5-10.32-10.62-15.29-15.73c0.22-0.22,0.43-0.44,0.65-0.66c5.37,4.38,10.74,8.75,16.55,13.49
			c-0.44-2.41-0.78-4.28-1.11-6.15c0.09-0.05,0.19-0.09,0.28-0.14c1.1,1.73,2.21,3.46,3.3,5.2c1.68,2.68,3.27,2.81,5.25,0.41
			c1.54-1.85,3.08-3.7,4.94-5.38c-0.76,2.08-1.53,4.17-2.29,6.25c0.11,0.08,0.22,0.16,0.33,0.23c5.69-3.91,11.38-7.81,17.07-11.72
			c0.1,0.11,0.19,0.21,0.29,0.32c-5.11,4.82-10.21,9.63-15.32,14.45C205.9,280.17,205.95,280.3,206,280.44z"/>
		<path class="st5" d="M181.34,239.21c1.31,0.73,3.28,1.68,5.82,2.28c4.62,1.1,8.34,0.42,11.7-0.2c1.56-0.29,5.87-1.17,10.95-3.71
			c3.52-1.76,6.21-3.72,8.08-5.26c-6.47,10-12.94,19.99-19.41,29.99C192.77,254.61,187.05,246.91,181.34,239.21z"/>
	</g>
</g>
<g>
	<line class="st4" x1="64.75" y1="396.97" x2="105.62" y2="396.97"/>
	<line class="st4" x1="394.31" y1="396.97" x2="435.25" y2="396.97"/>
</g>
<g>
	<path class="st5" d="M145.04,384.86c-2.32,2.71-3.78,5.19-4.38,7.44l-0.51-0.34c0.62-2.55,2.1-5.05,4.45-7.52L145.04,384.86z"/>
	<g>
		<path class="st5" d="M117.94,383.37h25.25c-1.01,1.33-1.72,2.38-2.15,3.14c-0.43,0.76-0.98,1.99-1.64,3.67l-0.19,0.49
			c-1.07-2.21-2.13-3.63-3.17-4.28c-1.05-0.65-2.81-0.97-5.29-0.97l-1.39,0.03l-2.36-0.03l-0.9-0.02v11.38h1.48v-10.05l0.7-0.02
			c1.01-0.05,2.08-0.07,3.21-0.07c3.31,0,5.38,0.86,6.2,2.58c-0.79-0.76-1.66-1.28-2.59-1.54c-0.93-0.27-2.37-0.4-4.32-0.4
			c-0.7,0-1.57,0.04-2.6,0.12v9.39h3.67l3.89-4.11v10.19l-4.09-4.04h-5.57v12.26l3.11,3.16h-11.94l3.96-3.16v-10.46
			c-1.25,0-2.34,0.47-3.28,1.41l-0.46-0.51c0.94-1.04,2.19-1.56,3.75-1.56v-1.14c-0.34-0.03-0.58-0.05-0.73-0.05
			c-1.51,0-2.81,0.62-3.92,1.85l-0.17-0.39c0.73-2.11,2.33-3.26,4.82-3.45v-10.26L117.94,383.37z"/>
		<polygon class="st5" points="133.17,400.86 128.18,400.86 128.18,411.27 132.46,416.57 118.38,416.57 117.77,415.91 131.1,415.91 
			127.57,411.56 127.57,400.2 132.46,400.2 		"/>
		<polygon class="st5" points="137.52,393.51 137.52,404.02 136.89,403.66 136.89,393.15 		"/>
		<path class="st5" d="M181.19,383.37l-0.39,0.46c-1.65,2.03-2.97,4.35-3.94,6.98c-0.16-0.37-0.28-0.65-0.37-0.83
			c-0.89-1.95-1.85-3.2-2.87-3.77c-1.02-0.57-2.85-0.85-5.5-0.85c-1.22,0-2.68,0.04-4.38,0.12v11.19h1.56v-9.9
			c1.23-0.11,2.41-0.17,3.53-0.17c2.06,0,3.58,0.22,4.55,0.66c0.97,0.44,1.84,1.29,2.6,2.55c-0.23-0.16-0.39-0.28-0.49-0.37
			c-1.31-1.04-2.26-1.65-2.85-1.85c-0.58-0.19-1.74-0.29-3.45-0.29c-0.52,0-1.44,0.03-2.77,0.1l-0.51,0.02v9.24h4.47l3.14-4.31
			v10.48l-3.14-4.06h-6.64v13.64h1.56v-12.5h5.28l0.63,0.63h-5.3v11.87c3.31,0,5.66-0.23,7.05-0.7c1.39-0.47,2.49-1.39,3.28-2.77
			l1.29-2.21c0.05-0.1,0.15-0.28,0.29-0.54c0.42,1.78,0.94,3.21,1.57,4.28s1.66,2.32,3.1,3.75h-27.26l3.7-2.82v-10.85
			c-1.36,0.16-2.59,0.58-3.7,1.26l-0.34-0.51c0.99-0.71,2.33-1.18,4.04-1.39v-1.14c-0.28-0.03-0.47-0.05-0.58-0.05
			c-1.65,0-3.16,0.61-4.52,1.82c0.75-2.59,2.45-3.89,5.11-3.89v-10.39l-3.7-2.92H181.19z M185.28,414.38l-1.26,2.19h-26.56
			l-0.39-0.66h26.63l0.83-1.53c-2.33-2.16-3.98-4.46-4.94-6.91l0.78,0.29c0.89,2.08,2.4,4.15,4.52,6.23L185.28,414.38z
			 M175.21,393.17v10.75l-0.61-0.32v-10.75L175.21,393.17z M182.36,385.07l-0.17,0.22c-1.98,2.66-3.3,4.89-3.96,6.69l-0.41-0.51
			c1.09-2.51,2.49-4.82,4.21-6.91L182.36,385.07z"/>
		<path class="st5" d="M196.38,386.68c3.86-2.55,8.19-3.82,12.99-3.82c3.49,0,6.33,0.78,8.54,2.35c2.2,1.56,3.31,3.59,3.31,6.07
			c0,3.31-1.91,5.52-5.74,6.64v0.27c0.39,0.1,0.86,0.23,1.41,0.39c1.8-0.42,3.21-1.28,4.24-2.58c1.03-1.3,1.54-2.86,1.54-4.69
			c0-2.3-0.95-4.35-2.85-6.13v-0.15l0.27,0.22c2.12,1.64,3.19,3.74,3.19,6.3c0,3.53-1.83,6-5.5,7.39c1.59,0.73,2.83,1.77,3.71,3.11
			c0.88,1.35,1.33,2.86,1.33,4.55c0,2.42-0.88,4.35-2.63,5.8c-1.75,1.45-4.09,2.18-7,2.18h-17.41l3.36-2.87v-10.53
			c-0.96,0-2.08,0.1-3.36,0.29l-0.19-0.7c1.44-0.15,2.63-0.22,3.55-0.22v-1.29h-0.61c-0.91,0-2.05,0.07-3.43,0.19l1.07-2.33
			l0.39,0.02c0.63,0.05,1.11,0.07,1.44,0.07c0.49,0,0.87,0.02,1.14,0.07v-9.15L196.38,386.68z M222.21,400.98
			c1.74,1.35,2.6,3.39,2.6,6.13c0,2.76-0.96,5.03-2.89,6.84c-1.88,1.75-4.65,2.63-8.29,2.63h-16.54l-0.41-0.66h15.35
			c3.34,0,5.75-0.34,7.22-1.02c3.27-1.52,4.91-4.18,4.91-7.95c0-2.11-0.75-4.02-2.24-5.74L222.21,400.98z M204,386.32v10.97
			c0.18-0.02,0.3-0.02,0.36-0.02l0.44,0.02c0.06,0,0.2,0,0.41,0v-9.95c1.39-0.65,2.76-0.97,4.09-0.97c1.52,0,2.73,0.28,3.61,0.83
			c0.88,0.55,1.63,1.49,2.25,2.82l-0.68-0.39c-1.22-1.83-2.95-2.75-5.2-2.75c-1.26,0-2.4,0.36-3.4,1.07v9.34h1.02
			c3.1,0,5.4-0.52,6.92-1.55c1.52-1.03,2.27-2.61,2.27-4.73c0-1.86-0.63-3.37-1.88-4.51c-1.26-1.14-2.91-1.71-4.95-1.71
			C207.45,384.78,205.7,385.29,204,386.32z M204,399.28v13.4h1.22v-11.94c1.15-0.08,1.98-0.12,2.48-0.12c2.69,0,4.64,0.25,5.85,0.75
			s2.17,1.46,2.88,2.87h-0.29c-0.79-1.12-1.79-1.89-2.99-2.32c-1.2-0.43-2.96-0.64-5.28-0.64l-1.99,0.05v11.36h0.78l3.53-0.12
			c4.57-0.33,6.86-2.55,6.86-6.66c0-2.58-0.75-4.34-2.26-5.29c-1.51-0.95-4.33-1.42-8.46-1.42
			C205.9,399.18,205.13,399.21,204,399.28z"/>
		<path class="st5" d="M265.03,383.37c-0.15,0.28-0.24,0.46-0.29,0.56l-1.65,2.92c-0.57,1.04-1.09,2.33-1.58,3.89l-0.05,0.12
			l-0.24-0.17l-0.07-0.32c-0.47-1.85-1.14-3.13-2.01-3.84c-0.87-0.71-2.19-1.07-3.98-1.07c-0.73,0-1.46,0.03-2.19,0.1h-0.29v26.36
			l2.87,2.65h-11.11l3.41-2.85v-24.2l-1.73-0.02c-1.67,0-2.86,0.33-3.56,0.99c-0.7,0.66-1.12,1.81-1.25,3.47h-0.63
			c0.18-1.9,0.67-3.22,1.47-3.96c0.8-0.75,2.13-1.12,3.98-1.12l1.46,0.03h0.27v-1.19c-0.83-0.1-1.61-0.15-2.36-0.15
			c-2.09,0-3.6,0.43-4.52,1.28c-0.92,0.85-1.43,2.29-1.53,4.32h-0.29c-0.7-2.25-1.78-4.77-3.23-7.54l-0.15-0.24H265.03z
			 M260.07,388.7c-1.25-0.81-2.71-1.22-4.38-1.22c-0.37,0-0.76,0.02-1.17,0.07l0.1,24.44l3.87,4.57h-12.43l-0.56-0.66h11.65
			l-3.26-3.72v-25.34l1.31-0.02c1.57,0,2.69,0.13,3.34,0.38C259.21,387.45,259.72,387.95,260.07,388.7z M266.57,384.9
			c-1.12,1.43-2.29,3.79-3.52,7.1l-0.1,0.24l-0.54-0.46l0.07-0.22c1.2-3.36,2.36-5.69,3.48-7l0.12-0.15L266.57,384.9z"/>
		<path class="st5" d="M303.07,383.37l-0.39,0.46c-1.66,2.03-2.97,4.35-3.94,6.98c-0.16-0.37-0.28-0.65-0.36-0.83
			c-0.89-1.95-1.85-3.2-2.87-3.77c-1.02-0.57-2.85-0.85-5.5-0.85c-1.22,0-2.68,0.04-4.38,0.12v11.19h1.56v-9.9
			c1.23-0.11,2.41-0.17,3.53-0.17c2.06,0,3.58,0.22,4.55,0.66c0.97,0.44,1.84,1.29,2.6,2.55c-0.23-0.16-0.39-0.28-0.49-0.37
			c-1.31-1.04-2.26-1.65-2.85-1.85c-0.58-0.19-1.74-0.29-3.45-0.29c-0.52,0-1.44,0.03-2.77,0.1l-0.51,0.02v9.24h4.47l3.14-4.31
			v10.48l-3.14-4.06h-6.64v13.64h1.56v-12.5h5.28l0.63,0.63h-5.3v11.87c3.31,0,5.66-0.23,7.05-0.7c1.39-0.47,2.49-1.39,3.29-2.77
			l1.29-2.21c0.05-0.1,0.14-0.28,0.29-0.54c0.42,1.78,0.94,3.21,1.57,4.28s1.66,2.32,3.1,3.75h-27.26l3.7-2.82v-10.85
			c-1.36,0.16-2.59,0.58-3.7,1.26l-0.34-0.51c0.99-0.71,2.33-1.18,4.04-1.39v-1.14c-0.27-0.03-0.47-0.05-0.58-0.05
			c-1.65,0-3.16,0.61-4.52,1.82c0.75-2.59,2.45-3.89,5.11-3.89v-10.39l-3.7-2.92H303.07z M307.15,414.38l-1.27,2.19h-26.56
			l-0.39-0.66h26.63l0.83-1.53c-2.33-2.16-3.98-4.46-4.94-6.91l0.78,0.29c0.89,2.08,2.4,4.15,4.53,6.23L307.15,414.38z
			 M297.08,393.17v10.75l-0.61-0.32v-10.75L297.08,393.17z M304.23,385.07l-0.17,0.22c-1.98,2.66-3.3,4.89-3.96,6.69l-0.41-0.51
			c1.08-2.51,2.49-4.82,4.21-6.91L304.23,385.07z"/>
		<path class="st5" d="M343.18,384.13l-0.27,0.46c-1.46,2.55-2.72,5.09-3.79,7.64l-0.22,0.56l-0.32-0.17
			c-0.37-2.47-1.24-4.42-2.6-5.86c-1.36-1.44-3.01-2.16-4.94-2.16c-2.06,0-3.78,0.9-5.15,2.7c-1.74,2.24-2.6,6.03-2.6,11.38
			c0,4.61,0.8,8.21,2.4,10.82c1.59,2.61,3.81,3.92,6.65,3.92c2.27,0,4.08-0.76,5.44-2.27c1.35-1.52,2.16-3.68,2.42-6.5
			c0.07-0.68,0.34-1.02,0.83-1.02c0.63,0,0.95,0.53,0.95,1.58c0,1.57-0.36,3.2-1.07,4.89c-1.51,3.57-4.62,5.35-9.34,5.35
			c-4.21,0-7.56-1.48-10.04-4.44c-2.48-2.96-3.72-6.96-3.72-12c0-4.65,1.29-8.55,3.87-11.7c2.58-3.15,5.78-4.72,9.61-4.72
			c1.81,0,3.88,0.45,6.2,1.34c1.22,0.47,2.22,0.7,3.02,0.7c0.86,0,1.63-0.23,2.31-0.7L343.18,384.13z M344.06,405.04
			c-0.26,4.02-1.38,7.08-3.37,9.18c-1.99,2.1-4.77,3.15-8.33,3.15c-2.71,0-5.23-0.83-7.57-2.51v-0.19c2.08,1.36,4.58,2.04,7.52,2.04
			c3.21,0,5.83-1.03,7.86-3.09c0.99-1.01,1.72-2.13,2.19-3.38c0.47-1.25,0.79-2.9,0.95-4.96l0.05-0.56L344.06,405.04z
			 M336.13,388.33c-1.48-1.18-2.87-1.77-4.18-1.77c-4.2,0-6.3,4.01-6.3,12.01c0,3.65,0.49,6.69,1.46,9.11
			c0.97,2.42,2.34,3.99,4.11,4.71v0.24c-1.91-0.39-3.44-1.86-4.59-4.41c-1.14-2.55-1.71-5.78-1.71-9.69c0-8.38,2.3-12.57,6.91-12.57
			c1.56,0,2.99,0.69,4.31,2.07V388.33z M344.96,385.29l-0.27,0.46c-1.77,3.02-3.18,5.76-4.23,8.24l-0.66-0.32l0.27-0.61
			c0.81-1.7,1.52-3.11,2.14-4.23l1.95-3.45l0.25-0.44L344.96,385.29z"/>
		<path class="st5" d="M357.16,383.37h11.43l-3.31,3.24v10.51c0.37,0.07,0.81,0.11,1.31,0.15v-10.41l2.65-2.63l0.48,0.44l-2.5,2.48
			v10.14l0.8,0.07c1.25,0.11,2.46,0.17,3.62,0.17c1.68,0,3.14-0.08,4.35-0.24v-11.19l-2.97-2.72h11.24l-3.36,3.24v25.34l2.94,2.63
			h-11.19l3.33-2.85v-10.31c-1.36,0.32-2.77,0.49-4.21,0.49c-1.37,0-2.77-0.07-4.23-0.22l-0.34-0.02v10.29l4.01,4.62h-12.57
			l-0.63-0.66h11.87l-3.31-3.62V401.1l0.7,0.05c2.14,0.16,3.69,0.24,4.64,0.24c1.56,0,2.91-0.21,4.06-0.63v-0.88
			c-1.52,0.23-3.3,0.34-5.33,0.34c-1.09,0-1.88-0.02-2.39-0.07l-2.46-0.22c-0.1-0.02-0.28-0.03-0.56-0.05v12.06l3.11,2.63h-11.24
			l3.26-2.85V401.1c-1.36,0-2.45,0.54-3.26,1.61l-0.51-0.24c0.94-1.18,2.2-1.84,3.77-1.97v-0.9c-1.82,0-3.25,0.69-4.31,2.07
			l-0.36-0.24c0.96-2.34,2.51-3.71,4.67-4.14v-10.94L357.16,383.37z M385.3,384.73l-2.48,2.41v24.81l4.04,4.62h-12.62l-0.61-0.66
			h11.85l-3.26-3.67V386.9l2.7-2.68L385.3,384.73z"/>
	</g>
</g>
</svg>
